<?xml version="1.0" standalone="no"?>
<!DOCTYPE svg PUBLIC "-//W3C//DTD SVG 20010904//EN"
 "http://www.w3.org/TR/2001/REC-SVG-20010904/DTD/svg10.dtd">
<svg version="1.0" xmlns="http://www.w3.org/2000/svg"
 width="166.000000pt" height="166.000000pt" viewBox="0 0 166.000000 166.000000"
 preserveAspectRatio="xMidYMid meet">
<metadata>
Created by potrace 1.11, written by Peter Selinger 2001-2013
</metadata>
<g transform="translate(0.000000,166.000000) scale(0.100000,-0.100000)"
fill="#000000" stroke="none">
<path d="M1000 1583 c-53 -10 -151 -63 -200 -109 -93 -87 -145 -238 -121 -351
30 -140 104 -238 223 -296 121 -59 238 -59 355 0 247 125 298 447 102 641 -97
96 -231 138 -359 115z m216 -63 c36 -14 110 -75 125 -102 9 -16 8 -19 -2 -13
-9 6 -10 2 -5 -16 16 -57 24 -129 17 -156 -6 -24 -8 -19 -14 33 -15 141 -104
244 -225 261 -39 6 -43 8 -22 13 26 7 77 -2 126 -20z"/>
<path d="M357 1084 c-4 -4 -7 -88 -7 -187 l0 -179 -22 6 c-97 28 -179 14 -239
-41 -112 -101 -111 -250 2 -346 63 -54 174 -71 241 -36 11 6 18 4 22 -7 4 -11
18 -14 58 -12 l53 3 0 400 0 400 -50 3 c-28 2 -54 0 -58 -4z m-40 -496 c23
-24 28 -38 28 -79 0 -44 -4 -54 -33 -80 -46 -41 -111 -41 -152 0 -50 50 -52
104 -5 160 41 48 115 48 162 -1z"/>
<path d="M515 1077 c-3 -6 -4 -188 -3 -402 l3 -390 55 0 55 0 5 141 c4 122 8
145 24 163 41 45 121 45 164 0 26 -28 27 -34 32 -166 l5 -138 55 0 55 0 0 146
c0 145 0 146 -30 195 -17 26 -50 62 -74 79 -39 27 -50 30 -120 30 -51 0 -84
-5 -94 -14 -16 -12 -17 0 -17 162 0 96 -3 182 -6 191 -8 20 -102 23 -109 3z"/>
<path d="M1519 952 c-37 -14 -59 -46 -66 -93 -3 -20 5 -36 30 -63 28 -30 41
-36 75 -36 33 0 45 6 71 35 75 86 -5 199 -110 157z"/>
<path d="M1010 685 c0 -66 5 -69 145 -63 52 1 95 1 95 -2 0 -3 -59 -75 -130
-160 -71 -85 -130 -161 -130 -167 0 -10 55 -13 240 -13 l240 0 0 60 0 60 -120
0 c-66 0 -120 2 -120 5 0 3 57 72 126 153 69 81 130 155 135 165 9 16 -5 17
-236 17 l-245 0 0 -55z"/>
<path d="M477 254 c-4 -4 -7 -16 -7 -26 0 -21 1 -20 -64 -22 -55 -2 -76 -21
-76 -71 0 -46 31 -70 91 -71 29 0 49 4 49 10 0 6 5 4 10 -4 15 -24 29 0 32 60
3 42 6 50 12 35 5 -11 17 -39 28 -62 10 -24 24 -43 31 -43 13 0 67 110 67 135
0 32 -29 13 -46 -30 -15 -42 -34 -60 -34 -34 0 22 -33 79 -45 79 -8 0 -15 10
-17 22 -3 22 -19 33 -31 22z m-42 -103 c9 -31 -5 -51 -36 -51 -22 0 -30 6 -35
24 -8 34 2 46 36 46 19 0 31 -6 35 -19z"/>
<path d="M920 233 c0 -29 0 -29 -56 -27 -47 2 -56 -1 -63 -17 -7 -20 -7 -20
-25 0 -24 27 -56 27 -90 0 -22 -17 -26 -28 -24 -57 4 -47 46 -80 85 -66 44 15
40 34 -6 34 -58 0 -51 17 9 22 48 3 49 2 52 -26 5 -47 28 -45 28 2 0 62 7 72
51 72 l39 0 0 -56 c0 -40 4 -55 13 -52 6 3 13 18 15 34 6 68 11 75 45 72 31
-3 32 -5 37 -53 4 -36 9 -50 20 -50 8 0 16 10 18 21 l3 22 24 -24 c19 -19 33
-23 71 -22 35 2 48 7 52 20 4 17 6 17 28 -1 18 -14 39 -19 87 -17 l62 1 5 50
5 50 43 3 c85 6 36 42 -54 39 -58 -2 -59 -3 -62 -32 -6 -66 -11 -75 -42 -75
-31 0 -36 9 -42 75 -3 26 -7 30 -33 30 -29 0 -30 -2 -35 -50 -4 -43 -8 -50
-28 -53 -35 -5 -52 15 -52 64 0 32 -4 44 -15 44 -10 0 -15 -10 -15 -32 l-1
-33 -16 27 c-18 29 -53 43 -83 33 -15 -5 -19 0 -22 21 -4 38 -28 44 -28 7z
m-160 -73 c0 -5 -13 -10 -30 -10 -16 0 -30 5 -30 10 0 6 14 10 30 10 17 0 30
-4 30 -10z"/>
<path d="M32 193 c2 -13 14 -19 41 -21 l37 -3 -35 -43 c-50 -61 -47 -67 33
-64 52 2 67 6 67 18 0 10 -13 17 -40 20 l-40 5 38 41 c20 23 37 47 37 53 0 7
-25 11 -71 11 -62 0 -70 -2 -67 -17z"/>
<path d="M214 200 c-11 -5 -26 -22 -33 -38 -11 -26 -10 -35 5 -61 20 -34 18
-33 87 -36 l47 -3 0 73 0 72 -42 0 c-24 1 -52 -3 -64 -7z m71 -49 c10 -33 -5
-52 -39 -49 -31 3 -44 23 -32 54 8 21 63 18 71 -5z"/>
</g>
</svg>
